{"title":"L'eclisse (Michelangelo Antonioni, 1962)","uid":8974460,"size":2255017664,"categoryP":"video","categoryS":"movies","magnet":"?xt=urn:btih:b25543e5efd70e787c9948977a8a0b4b5703fc3b&amp;dn=L%27eclisse+%28Michelangelo+Antonioni%2C+1962%29&amp;tr=udp%3A%2F%2Ftracker.openbittorrent.com%3A80&amp;tr=udp%3A%2F%2Fopen.demonii.com%3A1337&amp;tr=udp%3A%2F%2Ftracker.coppersurfer.tk%3A6969&amp;tr=udp%3A%2F%2Fexodus.desync.com%3A6969","seeders":9,"leechers":3,"uploader":"moonflux","files":1,"time":1380403036,"description":"In the suburbs of Rome, the translator Vittoria breaks her engagement with her boyfriend, the writer Ricardo, after a troubled night. Vittoria goes downtown to meet her mother, who is addicted to the stock market, and she meets the broker Piero on a day of crash. The materialist Piero and the absent Vittoria begin a monosyllabic relationship.\n\nGeneral\nUnique ID : 224017983083572345626337510770367527129 (0xA8884B4EBCCB2A1095A44612F3C7F8D9)\nComplete name : LEclisse.1962.DVDRip.x264.mkv\nFormat : Matroska\nFormat version : Version 2\nFile size : 2.10 GiB\nDuration : 2h 6mn\nOverall bit rate : 2 386 Kbps\nEncoded date : UTC 2009-11-02 20:30:05\nWriting application : mkvmerge v2.9.7 ('Tenderness') built on Jul 1 2009 18:43:35\nWriting library : libebml v0.7.7 + libmatroska v0.8.1\n\nVideo\nID : 1\nFormat : AVC\nFormat/Info : Advanced Video Codec\nFormat profile : &lt;a class=&quot;__cf_email__&quot; href=&quot;/cdn-cgi/l/email-protection&quot; data-cfemail=&quot;88c0e1efe0c8c4bba6b8&quot;&gt;[email&amp;#160;protected]&lt;/a&gt;&lt;script cf-hash='f9e31' type=&quot;text/javascript&quot;&gt;\n/* &lt;![CDATA[ */!function(){try{var t=&quot;currentScript&quot;in document?document.currentScript:function(){for(var t=document.getElementsByTagName(&quot;script&quot;),e=t.length;e--;)if(t[e].getAttribute(&quot;cf-hash&quot;))return t[e]}();if(t&amp;&amp;t.previousSibling){var e,r,n,i,c=t.previousSibling,a=c.getAttribute(&quot;data-cfemail&quot;);if(a){for(e=&quot;&quot;,r=parseInt(a.substr(0,2),16),n=2;a.length-n;n+=2)i=parseInt(a.substr(n,2),16)^r,e+=String.fromCharCode(i);e=document.createTextNode(e),c.parentNode.replaceChild(e,c)}}}catch(u){}}();/* ]]&gt; */&lt;/script&gt;\nFormat settings, CABAC : Yes\nFormat settings, ReFrames : 5 frames\nCodec ID : V_MPEG4/ISO/AVC\nDuration : 2h 6mn\nBit rate : 2 000 Kbps\nWidth : 720 pixels\nHeight : 464 pixels\nDisplay aspect ratio : 16:9\nFrame rate : 23.976 fps\nColor space : YUV\nChroma subsampling : 4:2:0\nBit depth : 8 bits\nScan type : Progressive\nBits/(Pixel*Frame) : 0.250\nStream size : 1.72 GiB (82%)\nWriting library : x264 core 78 r1301M bcba15d\nEncoding settings : cabac=1 // deblock=1:-1:-1 / analyse=0x3:0x133 / me=umh / subme=7 / psy=1 / psy_rd=1.0:0.0 // me_range=16 / chroma_me=1 / trellis=2 / 8x8dct=1 / cqm=0 / deadzone=21,11 / chroma_qp_offset=-2 / threads=3 / nr=0 / decimate=1 / mbaff=0 / constrained_intra=0 / bframes=3 / b_pyramid=0 / b_adapt=2 / b_bias=0 / direct=3 / wpredb=1 / keyint=250 / keyint_min=25 / scenecut=40 / rc=2pass / mbtree=0 / bitrate=2000 / ratetol=1.0 / qcomp=0.60 / qpmin=10 / qpmax=51 / qpstep=4 / cplxblur=20.0 / qblur=0.5 / ip_ratio=1.40 / pb_ratio=1.30 / aq=1:1.00\nLanguage : English\n\nAudio #1\nID : 2\nFormat : AC-3\nFormat/Info : Audio Coding 3\nMode extension : CM (complete main)\nCodec ID : A_AC3\nDuration : 2h 6mn\nBit rate mode : Constant\nBit rate : 192 Kbps\nChannel(s) : 1 channel\nChannel positions : Front: C\nSampling rate : 48.0 KHz\nBit depth : 16 bits\nCompression mode : Lossy\nStream size : 173 MiB (8%)\nTitle : Audio\nLanguage : Italian\n\nAudio #2\nID : 3\nFormat : AC-3\nFormat/Info : Audio Coding 3\nMode extension : CM (complete main)\nCodec ID : A_AC3\nDuration : 2h 6mn\nBit rate mode : Constant\nBit rate : 192 Kbps\nChannel(s) : 1 channel\nChannel positions : Front: C\nSampling rate : 48.0 KHz\nBit depth : 16 bits\nCompression mode : Lossy\nStream size : 173 MiB (8%)\nTitle : Commentary\nLanguage : English\n\nText\nID : 4\nFormat : UTF-8\nCodec ID : S_TEXT/UTF8\nCodec ID/Info : UTF-8 Plain Text\nLanguage : English\n","torrent":{"xt":"urn:btih:b25543e5efd70e787c9948977a8a0b4b5703fc3b","amp;dn":"L%27eclisse+%28Michelangelo+Antonioni%2C+1962%29","amp;tr":["udp%3A%2F%2Ftracker.openbittorrent.com%3A80","udp%3A%2F%2Fopen.demonii.com%3A1337","udp%3A%2F%2Ftracker.coppersurfer.tk%3A6969","udp%3A%2F%2Fexodus.desync.com%3A6969"],"infoHash":"b25543e5efd70e787c9948977a8a0b4b5703fc3b","infoHashBuffer":{"type":"Buffer","data":[178,85,67,229,239,215,14,120,124,153,72,151,122,138,11,75,87,3,252,59]},"announce":[],"urlList":[]}}